<svg width="36" height="36" viewBox="0 0 36 36" fill="none" xmlns="http://www.w3.org/2000/svg">
<path d="M33 18C33 9.71572 26.2842 3 18 3C9.71572 3 3 9.71572 3 18C3 26.2842 9.71572 33 18 33C26.2842 33 33 26.2842 33 18ZM30.75 18C30.75 25.0416 25.0416 30.75 18 30.75C10.9584 30.75 5.25 25.0416 5.25 18C5.25 10.9584 10.9584 5.25 18 5.25C25.0416 5.25 30.75 10.9584 30.75 18ZM21.0455 24.7955C21.4848 24.3561 21.4848 23.6439 21.0455 23.2045L15.8411 18L21.0455 12.7955C21.4848 12.3562 21.4848 11.6438 21.0455 11.2045C20.6061 10.7652 19.8939 10.7652 19.4545 11.2045L13.4545 17.2045C13.0152 17.6439 13.0152 18.3561 13.4545 18.7955L19.4545 24.7955C19.8939 25.2348 20.6061 25.2348 21.0455 24.7955Z" fill="#D6D6D6"/>
</svg>
