<svg width="36" height="36" viewBox="0 0 36 36" fill="none" xmlns="http://www.w3.org/2000/svg">
<path d="M3 18C3 9.71572 9.71572 3 18 3C26.2842 3 33 9.71572 33 18C33 26.2842 26.2842 33 18 33C9.71572 33 3 26.2842 3 18ZM5.25 18C5.25 25.0416 10.9584 30.75 18 30.75C25.0416 30.75 30.75 25.0416 30.75 18C30.75 10.9584 25.0416 5.25 18 5.25C10.9584 5.25 5.25 10.9584 5.25 18ZM14.9545 24.7955C14.5152 24.3561 14.5152 23.6439 14.9545 23.2045L20.1589 18L14.9545 12.7955C14.5152 12.3562 14.5152 11.6438 14.9545 11.2045C15.3939 10.7652 16.1061 10.7652 16.5455 11.2045L22.5455 17.2045C22.9848 17.6439 22.9848 18.3561 22.5455 18.7955L16.5455 24.7955C16.1061 25.2348 15.3939 25.2348 14.9545 24.7955Z" fill="#212121"/>
</svg>
