<svg width="48" height="48" viewBox="0 0 48 48" fill="none" xmlns="http://www.w3.org/2000/svg">
<path d="M16.8 9H10.5C9.30653 9 8.16193 9.47411 7.31802 10.318C6.47411 11.1619 6 12.3065 6 13.5V28.5C6 29.6935 6.47411 30.8381 7.31802 31.682C8.16193 32.5259 9.30653 33 10.5 33H15V41.694L24.936 33H37.5C38.5576 32.9999 39.5814 32.6273 40.3917 31.9476C41.202 31.2679 41.747 30.3245 41.931 29.283C43.0989 28.3295 44.1314 27.2213 45 25.989V28.5C45 29.4849 44.806 30.4602 44.4291 31.3701C44.0522 32.2801 43.4997 33.1069 42.8033 33.8033C42.1069 34.4997 41.2801 35.0522 40.3701 35.4291C39.4602 35.806 38.4849 36 37.5 36H26.064L16.875 44.04C16.4498 44.4117 15.9266 44.6531 15.3678 44.7353C14.8091 44.8174 14.2385 44.7369 13.7243 44.5034C13.2101 44.2699 12.774 43.8932 12.4682 43.4184C12.1625 42.9436 11.9999 42.3908 12 41.826V36H10.5C8.51088 36 6.60322 35.2098 5.1967 33.8033C3.79018 32.3968 3 30.4891 3 28.5V13.5C3 11.5109 3.79018 9.60322 5.1967 8.1967C6.60322 6.79018 8.51088 6 10.5 6H18.771C18.007 6.92546 17.3461 7.93139 16.8 9ZM31.5 30C35.0804 30 38.5142 28.5777 41.0459 26.0459C43.5777 23.5142 45 20.0804 45 16.5C45 12.9196 43.5777 9.4858 41.0459 6.95406C38.5142 4.42232 35.0804 3 31.5 3C27.9196 3 24.4858 4.42232 21.9541 6.95406C19.4223 9.4858 18 12.9196 18 16.5C18 20.0804 19.4223 23.5142 21.9541 26.0459C24.4858 28.5777 27.9196 30 31.5 30ZM30 10.5C30 10.1022 30.158 9.72064 30.4393 9.43934C30.7206 9.15804 31.1022 9 31.5 9C31.8978 9 32.2794 9.15804 32.5607 9.43934C32.842 9.72064 33 10.1022 33 10.5V16.5C33 16.8978 32.842 17.2794 32.5607 17.5607C32.2794 17.842 31.8978 18 31.5 18C31.1022 18 30.7206 17.842 30.4393 17.5607C30.158 17.2794 30 16.8978 30 16.5V10.5ZM33.375 22.5C33.375 22.9973 33.1775 23.4742 32.8258 23.8258C32.4742 24.1775 31.9973 24.375 31.5 24.375C31.0027 24.375 30.5258 24.1775 30.1742 23.8258C29.8225 23.4742 29.625 22.9973 29.625 22.5C29.625 22.0027 29.8225 21.5258 30.1742 21.1742C30.5258 20.8225 31.0027 20.625 31.5 20.625C31.9973 20.625 32.4742 20.8225 32.8258 21.1742C33.1775 21.5258 33.375 22.0027 33.375 22.5Z" fill="black"/>
</svg>
