<svg width="36" height="40" viewBox="0 0 36 40" fill="none" xmlns="http://www.w3.org/2000/svg">
<path d="M22.7086 3.79108C22.4725 1.66023 20.6657 0.00302124 18.472 0.00302124H11.841C9.64721 0.00302124 7.84048 1.66023 7.60438 3.79108L4.26276 3.79215C1.90851 3.79215 0 5.70065 0 8.05491V33.6315C0 35.9857 1.90851 37.8943 4.26276 37.8943H13.2646C13.2509 37.5296 13.2883 37.1531 13.3836 36.7717L13.8134 35.0524H4.26276C3.47802 35.0524 2.84184 34.4162 2.84184 33.6315V8.05491C2.84184 7.27016 3.47802 6.63399 4.26276 6.63399L8.29633 6.63437C9.06107 7.7766 10.3632 8.52855 11.841 8.52855H18.472C19.9497 8.52855 21.2521 7.77654 22.0167 6.63429L26.0502 6.63399C26.835 6.63399 27.4712 7.27016 27.4712 8.05491V18.6845C28.2993 17.9263 29.2825 17.4326 30.313 17.2034V8.05491C30.313 5.70065 28.4044 3.79215 26.0502 3.79215L22.7086 3.79108ZM22.7249 3.97393L22.7347 4.26579C22.7347 4.16769 22.7315 4.07036 22.7249 3.97393ZM11.841 2.84486H18.472C19.2567 2.84486 19.8929 3.48104 19.8929 4.26579C19.8929 5.05053 19.2567 5.68671 18.472 5.68671H11.841C11.0563 5.68671 10.4201 5.05053 10.4201 4.26579C10.4201 3.48104 11.0563 2.84486 11.841 2.84486ZM17.7255 28.4215H7.57825C6.7935 28.4215 6.15733 29.0576 6.15733 29.8424C6.15733 30.6271 6.7935 31.2633 7.57825 31.2633H15.1243C15.3986 30.8298 15.7211 30.4259 16.0871 30.0599L17.7255 28.4215ZM15.1565 23.685H7.57825C6.7935 23.685 6.15733 23.0489 6.15733 22.2641C6.15733 21.4794 6.7935 20.8432 7.57825 20.8432H15.1565C15.9412 20.8432 16.5774 21.4794 16.5774 22.2641C16.5774 23.0489 15.9412 23.685 15.1565 23.685ZM22.7347 16.1068H7.57825C6.7935 16.1068 6.15733 15.4706 6.15733 14.6859C6.15733 13.9011 6.7935 13.265 7.57825 13.265H22.7347C23.5195 13.265 24.1557 13.9011 24.1557 14.6859C24.1557 15.4706 23.5195 16.1068 22.7347 16.1068ZM28.6077 20.2171L17.425 31.3995C16.7731 32.0514 16.3107 32.8684 16.0869 33.763L15.2198 37.2314C14.8428 38.7396 16.2091 40.106 17.7174 39.7288L21.1858 38.8616C22.0802 38.6381 22.8971 38.1756 23.5492 37.5235L34.7317 26.341C36.4228 24.65 36.4228 21.9081 34.7317 20.2171C33.0406 18.5258 30.2988 18.5258 28.6077 20.2171Z" fill="#212121"/>
</svg>
