<svg width="36" height="36" viewBox="0 0 36 36" fill="none" xmlns="http://www.w3.org/2000/svg">
<path d="M26.4363 1.49419C28.4273 -0.498062 31.6583 -0.498062 33.6494 1.49419L34.5067 2.35296C36.4978 4.34542 36.4978 7.57573 34.5067 9.56677L20.534 23.5466C19.9175 24.156 19.1594 24.6024 18.3233 24.8433L11.2377 26.8697C10.6425 27.0398 10.0048 26.8697 9.56552 26.3737C9.1333 25.9982 8.96324 25.3605 9.1333 24.7653L11.1598 17.6798C11.4007 16.8437 11.8471 16.0855 12.4564 15.4691L26.4363 1.49419ZM31.1836 3.89903C30.5813 3.23511 29.5043 3.23511 28.8383 3.89903L26.7764 5.96022L30.0428 9.22667L32.1047 7.101C32.7708 6.49872 32.7708 5.42172 32.1047 4.7578L31.1836 3.89903ZM14.4333 18.615L13.2429 22.7601L17.388 21.5697C17.6714 21.4918 17.9194 21.343 18.1249 21.1375L27.6408 11.6287L24.3744 8.36223L14.8655 17.8781C14.66 18.0836 14.5112 18.3316 14.4333 18.615ZM14.1711 4.25968C15.1135 4.25968 15.8717 5.02138 15.8717 5.96022C15.8717 6.9026 15.1135 7.66076 14.1711 7.66076H6.2353C4.6701 7.66076 3.40107 8.92907 3.40107 10.495V29.7677C3.40107 31.3336 4.6701 32.602 6.2353 32.602H25.508C27.074 32.602 28.3423 31.3336 28.3423 29.7677V21.8319C28.3423 20.8895 29.1004 20.1314 30.0428 20.1314C30.9852 20.1314 31.7433 20.8895 31.7433 21.8319V29.7677C31.7433 33.2113 28.9516 36.003 25.508 36.003H6.2353C2.79171 36.003 0 33.2113 0 29.7677V10.495C0 7.0514 2.79171 4.25968 6.2353 4.25968H14.1711Z" fill="black"/>
</svg>
